HIERARCHY
ROOT Hips
{
	OFFSET 0.000000 0.000000 0.000000 
	CHANNELS 6 Xposition Yposition Zposition Yrotation Zrotation Xrotation 
	JOINT Lumbar
	{
		OFFSET 0.000000 0.000000 0.000000 
		CHANNELS 3 Zrotation Xrotation Yrotation
		JOINT Neck
		{
			OFFSET 0.000000 0.445665 0.000000 
			CHANNELS 3 Zrotation Xrotation Yrotation
			End Site
			{
				OFFSET 0.000000 0.227535 0.000000 
			}
		}
		JOINT RightShoulder
		{
			OFFSET 0.019635 0.377685 0.194865 
			CHANNELS 3 Zrotation Xrotation Yrotation
			JOINT RightElbow
			{
				OFFSET 0.000000 -0.243375 0.000000 
				CHANNELS 2 Zrotation Yrotation
				JOINT RightWrist
				{
					OFFSET 0.000000 -0.264825 0.000000 
					CHANNELS 2 Zrotation Xrotation
					End Site
					{
						OFFSET 0.006600 -0.176220 0.000990 
					}
				}
			}
		}
		JOINT LeftShoulder
		{
			OFFSET 0.019635 0.377685 -0.194865 
			CHANNELS 3 Zrotation Xrotation Yrotation
			JOINT LeftElbow
			{
				OFFSET 0.000000 -0.243375 0.000000 
				CHANNELS 2 Zrotation Yrotation
				JOINT LeftWrist
				{
					OFFSET 0.000000 -0.264825 0.000000 
					CHANNELS 2 Zrotation Xrotation
					End Site
					{
						OFFSET 0.006600 -0.176220 -0.000990 
					}
				}
			}
		}
	}
	JOINT RightHip
	{
		OFFSET 0.052140 -0.069960 0.075570 
		CHANNELS 3 Zrotation Xrotation Yrotation
		JOINT RightKnee
		{
			OFFSET 0.000000 -0.402270 0.000000 
			CHANNELS 1 Zrotation
			JOINT RightAnkle
			{
				OFFSET 0.000000 -0.404085 0.000000 
				CHANNELS 3 Zrotation Xrotation Yrotation
				End Site
				{
					OFFSET 0.204105 -0.089430 0.008415 
				}
			}
		}
	}
	JOINT LeftHip
	{
		OFFSET 0.052140 -0.069960 -0.075570 
		CHANNELS 3 Zrotation Xrotation Yrotation
		JOINT LeftKnee
		{
			OFFSET 0.000000 -0.402270 0.000000 
			CHANNELS 1 Zrotation
			JOINT LeftAnkle
			{
				OFFSET 0.000000 -0.404085 0.000000 
				CHANNELS 3 Zrotation Xrotation Yrotation
				End Site
				{
					OFFSET 0.204105 -0.089430 -0.008415 
				}
			}
		}
	}
}
MOTION
Frames: 25
Frame Time: 0.02
0.05385 0.01121 -0.19637 10.01555 -12.85395 -5.22976 38.21175 1.98686 -11.35502 -22.05372 0.08127 -2.1199 17.09976 -59.77477 15.55196 91.23784 81.11818 15.20017 -3.07236 18.70785 58.14225 -17.7468 93.73891 -73.88077 18.48588 4.3988 36.99679 -7.74884 -14.3035 -20.4741 -11.21762 -3.09208 -3.97147 27.02376 2.69136 11.48643 -25.28009 -7.84528 3.64269 4.05056
0.05379 0.01125 -0.19644 10.05255 -12.88966 -5.24126 38.2627 1.99757 -11.35202 -22.05395 0.11553 -2.1199 17.32106 -59.78833 15.82609 91.23119 81.09274 15.46365 -3.189 18.79556 58.17967 -17.85825 93.72307 -73.96904 18.46878 4.39449 37.03326 -7.748 -14.2581 -20.47738 -11.2284 -3.09398 -3.97476 27.0507 2.80762 11.99199 -25.29607 -7.79906 3.58877 4.02515
0.05379 0.0113 -0.19651 10.05157 -12.97735 -5.25099 38.35082 2.01782 -11.32023 -22.02697 0.1597 -2.1199 17.7232 -59.81318 16.22511 91.15496 81.05575 15.80143 -3.33877 19.01621 58.19935 -18.04768 93.69077 -74.09917 18.44361 4.38909 37.15136 -7.70834 -14.02381 -20.4995 -11.25001 -3.1071 -3.98494 27.13646 2.94083 12.55871 -25.32679 -7.74849 3.52816 3.9979
0.05378 0.01134 -0.19657 10.067 -13.03861 -5.26072 38.41899 2.03335 -11.30122 -22.01363 0.19847 -2.1199 18.03981 -59.82526 16.56089 91.11189 81.02511 16.09382 -3.4663 19.17338 58.22822 -18.19912 93.66807 -74.20633 18.42205 4.384 37.22819 -7.6873 -13.88152 -20.51241 -11.26582 -3.1148 -3.99168 27.1921 3.06191 13.07914 -25.34971 -7.70163 3.47265 3.97243
0.05372 0.01139 -0.19665 10.08666 -13.1114 -5.27358 38.49957 2.05025 -11.2848 -21.99441 0.24074 -2.1199 18.38507 -59.86895 16.93125 91.06414 80.98749 16.43599 -3.62416 19.3539 58.25367 -18.36832 93.63646 -74.3269 18.40191 4.3799 37.32112 -7.66323 -13.71858 -20.52719 -11.28476 -3.12351 -3.99952 27.26125 3.20128 13.6771 -25.37691 -7.64742 3.40845 3.94298
0.05376 0.01143 -0.19669 10.08843 -13.17269 -5.27968 38.5633 2.06668 -11.25584 -21.98134 0.27818 -2.1199 18.70727 -59.84962 17.25517 91.00931 80.9629 16.69121 -3.72689 19.51374 58.2814 -18.5164 93.6194 -74.43075 18.37653 4.3734 37.40049 -7.63576 -13.55166 -20.54292 -11.3 -3.13292 -4.00679 27.3166 3.30676 14.12797 -25.39883 -7.60752 3.36077 3.92139
0.054 0.01147 -0.19663 10.04775 -13.18872 -5.26648 38.57148 2.07905 -11.19697 -21.9898 0.2997 -2.1199 18.9314 -59.65544 17.43709 90.94688 80.97279 16.69693 -3.66723 19.57943 58.32137 -18.58681 93.64767 -74.47756 18.33755 4.36044 37.42217 -7.60936 -13.42104 -20.55608 -11.30202 -3.14143 -4.0107 27.31854 3.31434 14.16244 -25.40251 -7.60766 3.36023 3.92178
0.05433 0.0115 -0.19652 9.99071 -13.19145 -5.24676 38.56139 2.09072 -11.12671 -22.00581 0.31605 -2.1199 19.1226 -59.39758 17.56459 90.88026 80.99713 16.61159 -3.55138 19.61914 58.36382 -18.63248 93.69094 -74.50657 18.29362 4.34511 37.42751 -7.58056 -13.29205 -20.56979 -11.30006 -3.15031 -4.01386 27.30469 3.28741 14.0465 -25.40039 -7.62238 3.37652 3.93013
0.05463 0.01154 -0.19643 9.94251 -13.20091 -5.23077 38.55978 2.10305 -11.06293 -22.01981 0.33493 -2.1199 19.32012 -59.16725 17.70449 90.81863 81.0181 16.5614 -3.46246 19.672 58.40383 -18.68846 93.7267 -74.54473 18.25241 4.33086 37.44085 -7.55205 -13.1608 -20.58373 -11.30024 -3.15913 -4.01748 27.299 3.27632 13.99579 -25.40103 -7.63082 3.38522 3.93495
0.05492 0.01156 -0.19635 9.88695 -13.20967 -5.21149 38.55903 2.11432 -10.9926 -22.02692 0.35347 -2.1199 19.5595 -58.94174 17.89862 90.74185 81.02567 16.53754 -3.36845 19.72349 58.44859 -18.75058 93.76496 -74.58023 18.20877 4.31646 37.45508 -7.52554 -13.02923 -20.59623 -11.29943 -3.1679 -4.02085 27.29185 3.26474 13.95833 -25.40176 -7.63785 3.39361 3.93943
0.05524 0.01162 -0.19624 9.84346 -13.21561 -5.1975 38.55127 2.12744 -10.93369 -22.05043 0.37126 -2.1199 19.70299 -58.6928 17.96809 90.69618 81.06406 16.43949 -3.27169 19.77054 58.48452 -18.79378 93.80159 -74.61598 18.16936 4.30194 37.46193 -7.49489 -12.90146 -20.61169 -11.29953 -3.17672 -4.02446 27.28242 3.2463 13.85935 -25.40059 -7.65109 3.4065 3.9464
0.05566 0.01174 -0.19606 9.83629 -13.22085 -5.20016 38.53217 2.14639 -10.90827 -22.11844 0.38894 -2.1199 19.57483 -58.37831 17.68071 90.74068 81.19014 16.12983 -3.17736 19.80502 58.49341 -18.78338 93.83182 -74.65921 18.14173 4.28695 37.45721 -7.45273 -12.78207 -20.63441 -11.30362 -3.18549 -4.02886 27.27755 3.21262 13.60384 -25.39696 -7.68007 3.42971 3.95947
0.05611 0.01189 -0.19584 9.84215 -13.22285 -5.20829 38.50592 2.16708 -10.89503 -22.20261 0.40584 -2.1199 19.35301 -58.04527 17.27365 90.81636 81.34569 15.75325 -3.08268 19.83633 58.4938 -18.75571 93.85968 -74.70123 18.11937 4.27226 37.44448 -7.40684 -12.66779 -20.66019 -11.30859 -3.19427 -4.03349 27.26951 3.17392 13.29509 -25.39131 -7.71445 3.45655 3.97459
0.05656 0.01202 -0.19564 9.84295 -13.22342 -5.21366 38.48028 2.18656 -10.87695 -22.27887 0.42259 -2.1199 19.18303 -57.73167 16.93814 90.87596 81.4838 15.42651 -2.99048 19.87294 58.4995 -18.74042 93.88754 -74.74381 18.09465 4.25766 37.43167 -7.36327 -12.55308 -20.68497 -11.31278 -3.20308 -4.03801 27.25784 3.14074 13.02655 -25.38556 -7.74491 3.48039 3.98798
0.05698 0.01216 -0.19544 9.83969 -13.23536 -5.22 38.46467 2.20774 -10.85558 -22.35789 0.44133 -2.1199 18.97336 -57.37011 16.52962 90.94345 81.63941 15.01638 -2.88669 19.89301 58.49914 -18.70536 93.92034 -74.79158 18.06726 4.2412 37.43342 -7.31687 -12.42991 -20.70801 -11.31849 -3.21178 -4.04256 27.26638 3.09323 12.68763 -25.38379 -7.78192 3.51035 4.00492
0.05745 0.0123 -0.19523 9.84799 -13.22361 -5.22566 38.42733 2.22585 -10.84402 -22.43474 0.45575 -2.1199 18.82389 -57.10393 16.24386 91.00198 81.7655 14.76302 -2.80748 19.94639 58.50941 -18.70747 93.94224 -74.82119 18.04971 4.22975 37.40392 -7.27563 -12.32608 -20.73556 -11.32125 -3.22066 -4.04709 27.23315 3.07413 12.48153 -25.3735 -7.80658 3.52843 4.01498
0.05806 0.01242 -0.19495 9.887 -13.14216 -5.22853 38.32635 2.23473 -10.85736 -22.50299 0.45882 -2.1199 18.86876 -57.11405 16.33992 91.028 81.80185 14.97801 -2.79847 20.09823 58.55039 -18.81796 93.93338 -74.86815 18.03076 4.22249 37.28348 -7.24864 -12.27015 -20.77325 -11.31613 -3.23038 -4.05177 27.07775 3.1409 12.68312 -25.33862 -7.79395 3.51075 4.00424
0.05872 0.01253 -0.19466 9.93691 -13.03805 -5.23047 38.20489 2.24051 -10.8801 -22.56819 0.45753 -2.1199 18.97656 -57.21955 16.56129 91.04397 81.80764 15.34982 -2.81413 20.2825 58.60231 -18.96598 93.91381 -74.88771 18.02538 4.22158 37.13325 -7.22711 -12.2341 -20.81563 -11.30794 -3.24022 -4.0564 26.88198 3.23557 13.01632 -25.29558 -7.76895 3.48126 3.98669
0.05936 0.01264 -0.19437 9.98059 -12.94761 -5.23255 38.09632 2.2479 -10.89801 -22.63387 0.45794 -2.1199 19.05238 -57.27619 16.71676 91.06468 81.82796 15.63799 -2.81727 20.4486 58.64993 -19.09639 93.89988 -74.87168 18.03335 4.22465 37.00098 -7.20372 -12.19199 -20.8569 -11.30084 -3.24978 -4.06087 26.70969 3.31338 13.27101 -25.25732 -7.7508 3.45849 3.97311
0.06 0.01276 -0.19408 10.03007 -12.84253 -5.23596 37.97209 2.25451 -10.91852 -22.70398 0.45939 -2.1199 19.13946 -57.35541 16.90613 91.08578 81.84642 15.97668 -2.8257 20.63009 58.69518 -19.22987 93.88257 -75.04492 17.96437 4.20067 36.84945 -7.17771 -12.13832 -20.89405 -11.29505 -3.26028 -4.06607 26.5154 3.40811 13.60036 -25.21438 -7.72776 3.4303 3.95599
0.06066 0.01287 -0.19379 10.06992 -12.76296 -5.23636 37.87606 2.26197 -10.93589 -22.76388 0.45778 -2.1199 19.21895 -57.41051 17.05579 91.10322 81.86134 16.24743 -2.8292 20.78597 58.74713 -19.36439 93.86981 -74.83438 18.05222 4.2321 36.73145 -7.15833 -12.11235 -20.94077 -11.28584 -3.26888 -4.06979 26.35766 3.47494 13.80908 -25.17937 -7.71175 3.41037 3.94449
0.06136 0.01297 -0.19351 10.08018 -12.7562 -5.22822 37.85972 2.27275 -10.9408 -22.79683 0.4477 -2.1199 19.26528 -57.37618 17.06959 91.11336 81.87185 16.30058 -2.81148 20.87454 58.82331 -19.50777 93.87203 -73.42257 18.62763 4.43648 36.71003 -7.15771 -12.16811 -21.01351 -11.26735 -3.27177 -4.06906 26.3082 3.45224 13.6273 -25.1675 -7.71959 3.41749 3.95116
0.06208 0.01307 -0.19323 10.0804 -12.77634 -5.21711 37.87292 2.28445 -10.94248 -22.81945 0.4349 -2.1199 19.30174 -57.31454 17.03905 91.11998 81.88004 16.27926 -2.78826 20.93428 58.90445 -19.64839 93.87927 -71.65099 19.35046 4.69272 36.72385 -7.16342 -12.24989 -21.09555 -11.2456 -3.27278 -4.0669 26.29725 3.40147 13.32404 -25.164 -7.73467 3.43309 3.96353
0.06279 0.01318 -0.19294 10.08527 -12.78643 -5.20761 37.87494 2.2956 -10.94653 -22.84639 0.42408 -2.1199 19.34105 -57.26484 17.02624 91.12778 81.89061 16.28622 -2.76861 20.99956 58.97772 -19.78018 93.88431 -70.14414 19.96674 4.9107 36.72402 -7.16488 -12.31219 -21.17286 -11.22581 -3.27502 -4.0657 26.27055 3.36747 13.09389 -25.15727 -7.74545 3.44386 3.97258
0.06351 0.01328 -0.19265 10.08992 -12.78714 -5.197 37.86749 2.30721 -10.94699 -22.87479 0.40999 -2.1199 19.38923 -57.21937 17.02717 91.13687 81.89481 16.3199 -2.74529 21.09717 59.07461 -19.95498 93.88853 -68.21793 20.7469 5.18958 36.71399 -7.17167 -12.40454 -21.25251 -11.2041 -3.27588 -4.06331 26.23571 3.31802 12.7949 -25.14808 -7.75997 3.45821 3.9844
